<svg width="20" height="20" viewBox="0 0 20 20" fill="none" xmlns="http://www.w3.org/2000/svg">
<path d="M15.8333 2.5H4.16667C3.24619 2.5 2.5 3.24619 2.5 4.16667V15.8333C2.5 16.7538 3.24619 17.5 4.16667 17.5H15.8333C16.7538 17.5 17.5 16.7538 17.5 15.8333V4.16667C17.5 3.24619 16.7538 2.5 15.8333 2.5Z" stroke="white" stroke-width="2" stroke-linecap="round" stroke-linejoin="round"/>
<path d="M7.50001 9.16668C8.42049 9.16668 9.16668 8.42048 9.16668 7.50001C9.16668 6.57954 8.42049 5.83334 7.50001 5.83334C6.57954 5.83334 5.83334 6.57954 5.83334 7.50001C5.83334 8.42048 6.57954 9.16668 7.50001 9.16668Z" stroke="white" stroke-width="2" stroke-linecap="round" stroke-linejoin="round"/>
<path d="M17.5 12.5L14.9283 9.92835C14.6158 9.61589 14.1919 9.44037 13.75 9.44037C13.3081 9.44037 12.8842 9.61589 12.5717 9.92835L5 17.5" stroke="white" stroke-width="2" stroke-linecap="round" stroke-linejoin="round"/>
</svg>
